<svg xmlns="http://www.w3.org/2000/svg" xmlns:xlink="http://www.w3.org/1999/xlink" width="500" zoomAndPan="magnify" viewBox="0 0 375 149.999998" height="200" preserveAspectRatio="xMidYMid meet" version="1.0"><defs><g/></defs><path fill="#549fd7" d="M 118.746094 64.09375 C 116.75 58.667969 113.199219 53.632812 107.992188 49.679688 C 107.242188 49.109375 106.453125 48.589844 105.648438 48.097656 L 68.550781 25.414062 C 69.65625 27.207031 70.5625 29.078125 71.269531 31.003906 C 72.289062 33.78125 72.878906 36.625 73.074219 39.464844 L 73.992188 40.023438 C 74.796875 40.515625 75.585938 41.035156 76.339844 41.605469 C 81.546875 45.558594 85.09375 50.59375 87.089844 56.019531 C 92.238281 70.007812 86.550781 85.683594 73.863281 93.523438 L 23.953125 124.363281 C 20.167969 126.824219 16.167969 128.5 12.121094 129.457031 C 23.019531 139.753906 40.976562 141.957031 55.605469 132.433594 L 105.519531 101.597656 C 118.203125 93.761719 123.894531 78.082031 118.746094 64.09375 Z M 118.746094 64.09375 " fill-opacity="1" fill-rule="nonzero"/><path fill="#388cc1" d="M 98.207031 44.789062 C 103.417969 48.746094 106.964844 53.78125 108.960938 59.207031 C 114.109375 73.195312 108.417969 88.871094 95.734375 96.710938 L 45.820312 127.546875 C 36.074219 133.890625 24.855469 135.023438 15.222656 132.03125 C 26.222656 140.050781 42.289062 141.097656 55.605469 132.433594 L 105.519531 101.597656 C 118.203125 93.761719 123.894531 78.085938 118.746094 64.09375 C 116.75 58.667969 113.199219 53.632812 107.992188 49.679688 C 107.242188 49.109375 106.453125 48.589844 105.648438 48.097656 Z M 98.207031 44.789062 " fill-opacity="1" fill-rule="nonzero"/><path fill="#e62b4a" d="M 73.867188 93.527344 C 86.554688 85.691406 92.242188 70.011719 87.09375 56.023438 C 85.097656 50.597656 81.546875 45.5625 76.339844 41.605469 C 75.589844 41.035156 74.800781 40.519531 73.996094 40.027344 L 73.078125 39.464844 C 73.875 50.910156 68.210938 62.230469 58.042969 68.511719 L 8.128906 99.34375 C 6.277344 100.546875 4.375 101.558594 2.441406 102.394531 L 2.441406 108.675781 C 2.441406 108.964844 2.425781 109.257812 2.453125 109.542969 C 3.304688 117.769531 6.90625 124.535156 12.117188 129.457031 C 16.164062 128.5 20.167969 126.824219 23.949219 124.363281 Z M 73.867188 93.527344 " fill-opacity="1" fill-rule="nonzero"/><path fill="#b5e1f9" d="M 73.074219 39.464844 C 72.878906 36.625 72.289062 33.78125 71.269531 31.003906 C 70.5625 29.078125 69.65625 27.207031 68.550781 25.414062 L 55.605469 17.5 C 46.96875 11.878906 37.195312 10.34375 28.390625 12.144531 C 15.152344 14.847656 4.109375 25.101562 2.453125 40.386719 C 2.421875 40.671875 2.441406 59.941406 2.441406 60.234375 L 2.441406 102.390625 C 4.375 101.558594 6.277344 100.542969 8.128906 99.339844 L 58.042969 68.503906 C 68.207031 62.226562 73.871094 50.910156 73.074219 39.464844 Z M 73.074219 39.464844 " fill-opacity="1" fill-rule="nonzero"/><path fill="#243544" d="M 121.042969 63.25 C 118.792969 57.136719 114.789062 51.769531 109.472656 47.734375 C 108.730469 47.171875 107.898438 46.609375 106.925781 46.015625 L 69.828125 23.328125 L 56.910156 15.433594 C 48.140625 9.734375 37.84375 7.714844 27.902344 9.746094 C 12.628906 12.871094 1.683594 24.792969 0.0234375 40.121094 C 0 40.328125 -0.0195312 40.519531 -0.00390625 59.8125 L -0.00390625 108.671875 L -0.0078125 108.871094 C -0.0117188 109.121094 -0.015625 109.441406 0.0195312 109.796875 C 0.894531 118.207031 4.496094 125.621094 10.4375 131.230469 C 16.242188 136.710938 23.988281 140.113281 32.257812 140.8125 C 33.347656 140.902344 34.433594 140.949219 35.515625 140.949219 C 43.035156 140.949219 50.375 138.746094 56.914062 134.496094 L 106.800781 103.675781 C 120.550781 95.1875 126.535156 78.183594 121.042969 63.25 Z M 4.894531 40.558594 C 6.359375 27.425781 15.765625 17.21875 28.886719 14.535156 C 37.566406 12.761719 46.582031 14.539062 54.273438 19.542969 C 54.292969 19.554688 54.3125 19.570312 54.332031 19.582031 L 66.75 27.175781 C 66.839844 27.320312 66.925781 27.46875 67.011719 27.621094 C 67.101562 27.78125 67.195312 27.945312 67.285156 28.113281 C 67.417969 28.359375 67.546875 28.609375 67.671875 28.859375 C 67.75 29.015625 67.832031 29.175781 67.90625 29.335938 C 68.039062 29.613281 68.167969 29.894531 68.289062 30.175781 C 68.351562 30.3125 68.414062 30.445312 68.472656 30.582031 C 68.648438 31 68.816406 31.421875 68.972656 31.847656 C 69.890625 34.339844 70.449219 36.960938 70.636719 39.636719 C 71.386719 50.410156 66.066406 60.675781 56.753906 66.429688 L 6.839844 97.265625 C 6.824219 97.277344 6.808594 97.285156 6.792969 97.296875 C 6.417969 97.539062 6.035156 97.777344 5.644531 98.007812 C 5.53125 98.078125 5.410156 98.144531 5.296875 98.210938 C 5.160156 98.292969 5.023438 98.363281 4.886719 98.441406 L 4.886719 59.8125 C 4.875 48.578125 4.878906 41.445312 4.894531 40.558594 Z M 4.886719 109.292969 C 4.882812 109.226562 4.882812 109.078125 4.886719 108.949219 L 4.886719 103.964844 C 4.902344 103.957031 4.914062 103.949219 4.929688 103.945312 C 5.007812 103.90625 5.078125 103.867188 5.152344 103.832031 C 5.542969 103.640625 5.929688 103.445312 6.316406 103.238281 C 6.457031 103.164062 6.601562 103.085938 6.75 103.003906 C 7.074219 102.828125 7.398438 102.644531 7.722656 102.457031 C 7.859375 102.378906 7.996094 102.300781 8.128906 102.21875 C 8.574219 101.957031 9.011719 101.6875 9.441406 101.40625 L 59.328125 70.585938 C 59.644531 70.390625 59.960938 70.1875 60.273438 69.980469 C 60.378906 69.910156 60.476562 69.839844 60.578125 69.769531 C 60.785156 69.628906 60.992188 69.488281 61.195312 69.34375 C 61.3125 69.257812 61.429688 69.175781 61.542969 69.089844 C 61.730469 68.953125 61.910156 68.820312 62.09375 68.683594 C 62.214844 68.59375 62.335938 68.5 62.453125 68.40625 C 62.628906 68.269531 62.800781 68.128906 62.972656 67.992188 C 63.089844 67.898438 63.207031 67.800781 63.324219 67.707031 C 63.496094 67.5625 63.664062 67.417969 63.835938 67.265625 C 63.945312 67.171875 64.058594 67.078125 64.164062 66.984375 C 64.347656 66.820312 64.527344 66.652344 64.703125 66.488281 C 64.792969 66.402344 64.882812 66.320312 64.976562 66.242188 C 65.238281 65.988281 65.496094 65.738281 65.75 65.484375 C 65.792969 65.441406 65.832031 65.398438 65.875 65.355469 C 66.085938 65.136719 66.296875 64.917969 66.503906 64.695312 C 66.597656 64.597656 66.683594 64.496094 66.773438 64.398438 C 66.925781 64.230469 67.082031 64.0625 67.230469 63.890625 C 67.328125 63.777344 67.425781 63.660156 67.523438 63.546875 C 67.664062 63.386719 67.796875 63.222656 67.933594 63.058594 C 68.03125 62.9375 68.128906 62.816406 68.226562 62.695312 C 68.355469 62.535156 68.484375 62.371094 68.613281 62.203125 C 68.703125 62.082031 68.800781 61.960938 68.890625 61.835938 C 69.015625 61.664062 69.144531 61.492188 69.265625 61.316406 C 69.355469 61.199219 69.4375 61.078125 69.523438 60.957031 C 69.660156 60.765625 69.789062 60.570312 69.917969 60.375 C 69.988281 60.273438 70.058594 60.171875 70.125 60.0625 C 70.316406 59.769531 70.507812 59.46875 70.6875 59.167969 C 70.738281 59.089844 70.78125 59.007812 70.828125 58.925781 C 70.964844 58.699219 71.101562 58.472656 71.230469 58.242188 C 71.296875 58.121094 71.363281 57.996094 71.433594 57.871094 C 71.535156 57.679688 71.640625 57.488281 71.742188 57.296875 C 71.8125 57.160156 71.878906 57.027344 71.949219 56.886719 C 72.042969 56.703125 72.136719 56.515625 72.226562 56.332031 C 72.292969 56.191406 72.359375 56.054688 72.425781 55.914062 C 72.511719 55.722656 72.601562 55.535156 72.683594 55.347656 C 72.746094 55.210938 72.808594 55.070312 72.867188 54.929688 C 72.953125 54.726562 73.035156 54.527344 73.117188 54.328125 C 73.167969 54.195312 73.222656 54.0625 73.277344 53.933594 C 73.367188 53.703125 73.453125 53.46875 73.539062 53.238281 C 73.574219 53.132812 73.617188 53.03125 73.652344 52.929688 C 73.769531 52.59375 73.882812 52.257812 73.992188 51.921875 C 74.023438 51.832031 74.050781 51.738281 74.078125 51.648438 C 74.15625 51.394531 74.234375 51.144531 74.304688 50.890625 C 74.34375 50.757812 74.375 50.628906 74.414062 50.496094 C 74.472656 50.277344 74.53125 50.0625 74.585938 49.84375 C 74.621094 49.703125 74.652344 49.558594 74.6875 49.417969 C 74.738281 49.207031 74.785156 48.996094 74.828125 48.78125 C 74.859375 48.636719 74.890625 48.492188 74.917969 48.347656 C 74.960938 48.136719 75.003906 47.917969 75.042969 47.703125 C 75.070312 47.5625 75.09375 47.417969 75.121094 47.277344 C 75.160156 47.046875 75.191406 46.820312 75.226562 46.589844 C 75.246094 46.457031 75.265625 46.332031 75.28125 46.203125 C 75.320312 45.921875 75.355469 45.636719 75.386719 45.351562 C 75.394531 45.277344 75.40625 45.203125 75.414062 45.121094 C 75.453125 44.777344 75.484375 44.429688 75.507812 44.082031 C 75.542969 44.109375 75.574219 44.136719 75.609375 44.160156 C 75.726562 44.257812 75.84375 44.355469 75.960938 44.453125 C 76.109375 44.578125 76.261719 44.703125 76.410156 44.832031 C 76.527344 44.933594 76.640625 45.039062 76.757812 45.140625 C 76.902344 45.269531 77.042969 45.398438 77.183594 45.527344 C 77.296875 45.632812 77.414062 45.746094 77.527344 45.855469 C 77.660156 45.984375 77.796875 46.113281 77.929688 46.246094 C 78.042969 46.359375 78.152344 46.46875 78.265625 46.585938 C 78.394531 46.71875 78.519531 46.851562 78.648438 46.984375 C 78.757812 47.101562 78.867188 47.21875 78.972656 47.339844 C 79.097656 47.472656 79.21875 47.613281 79.339844 47.75 C 79.445312 47.871094 79.550781 47.992188 79.65625 48.113281 C 79.773438 48.253906 79.886719 48.390625 80.003906 48.535156 C 80.105469 48.660156 80.207031 48.78125 80.304688 48.910156 C 80.417969 49.050781 80.53125 49.195312 80.640625 49.34375 C 80.734375 49.46875 80.832031 49.59375 80.925781 49.722656 C 81.035156 49.871094 81.140625 50.019531 81.246094 50.167969 C 81.335938 50.296875 81.425781 50.425781 81.519531 50.558594 C 81.621094 50.710938 81.71875 50.863281 81.820312 51.015625 C 81.910156 51.148438 81.996094 51.28125 82.082031 51.410156 C 82.179688 51.566406 82.273438 51.722656 82.371094 51.882812 C 82.453125 52.015625 82.535156 52.148438 82.613281 52.285156 C 82.707031 52.445312 82.796875 52.605469 82.886719 52.769531 C 82.964844 52.90625 83.039062 53.039062 83.113281 53.171875 C 83.203125 53.339844 83.292969 53.511719 83.378906 53.679688 C 83.445312 53.8125 83.515625 53.945312 83.582031 54.078125 C 83.675781 54.257812 83.757812 54.441406 83.84375 54.625 C 83.902344 54.75 83.964844 54.875 84.019531 55 C 84.113281 55.207031 84.199219 55.410156 84.289062 55.617188 C 84.332031 55.722656 84.378906 55.828125 84.425781 55.9375 C 84.554688 56.253906 84.679688 56.570312 84.792969 56.886719 C 89.492188 69.652344 84.351562 84.195312 72.578125 91.46875 L 22.667969 122.285156 C 22.648438 122.292969 22.632812 122.304688 22.617188 122.3125 C 22.210938 122.578125 21.800781 122.835938 21.382812 123.082031 C 21.246094 123.160156 21.113281 123.238281 20.976562 123.316406 C 20.695312 123.480469 20.410156 123.640625 20.125 123.796875 C 19.960938 123.882812 19.796875 123.96875 19.636719 124.054688 C 19.375 124.191406 19.109375 124.328125 18.84375 124.457031 C 18.667969 124.542969 18.492188 124.625 18.316406 124.710938 C 18.054688 124.832031 17.796875 124.949219 17.535156 125.066406 C 17.355469 125.144531 17.171875 125.222656 16.988281 125.300781 C 16.726562 125.410156 16.460938 125.519531 16.199219 125.621094 C 16.015625 125.691406 15.835938 125.765625 15.652344 125.832031 C 15.378906 125.933594 15.101562 126.03125 14.824219 126.125 C 14.648438 126.183594 14.476562 126.246094 14.300781 126.304688 C 13.992188 126.40625 13.683594 126.5 13.375 126.589844 C 13.226562 126.632812 13.085938 126.679688 12.9375 126.71875 C 12.910156 126.726562 12.878906 126.734375 12.851562 126.742188 C 8.332031 122.066406 5.589844 116.0625 4.886719 109.292969 Z M 104.230469 99.519531 L 54.316406 130.351562 C 54.300781 130.363281 54.285156 130.371094 54.269531 130.382812 C 47.707031 134.65625 40.234375 136.582031 32.667969 135.9375 C 27.035156 135.464844 21.691406 133.550781 17.230469 130.460938 C 17.308594 130.433594 17.378906 130.402344 17.457031 130.371094 C 17.5625 130.332031 17.671875 130.292969 17.78125 130.25 C 18.195312 130.089844 18.609375 129.921875 19.019531 129.75 C 19.089844 129.71875 19.160156 129.691406 19.226562 129.660156 C 19.6875 129.464844 20.140625 129.253906 20.59375 129.039062 C 20.703125 128.984375 20.8125 128.933594 20.917969 128.878906 C 21.339844 128.675781 21.761719 128.460938 22.179688 128.238281 C 22.21875 128.21875 22.257812 128.195312 22.296875 128.175781 C 22.746094 127.9375 23.1875 127.683594 23.625 127.429688 C 23.734375 127.367188 23.839844 127.300781 23.945312 127.238281 C 24.386719 126.976562 24.824219 126.703125 25.257812 126.421875 L 75.148438 95.601562 C 88.894531 87.109375 94.878906 70.109375 89.382812 55.179688 C 87.128906 49.0625 83.128906 43.695312 77.8125 39.660156 C 77.632812 39.523438 77.449219 39.386719 77.253906 39.25 C 77.1875 39.203125 77.117188 39.15625 77.050781 39.109375 C 76.921875 39.019531 76.792969 38.925781 76.652344 38.832031 C 76.570312 38.777344 76.480469 38.71875 76.394531 38.660156 C 76.269531 38.578125 76.144531 38.496094 76.015625 38.410156 C 75.917969 38.351562 75.816406 38.289062 75.71875 38.226562 C 75.613281 38.160156 75.507812 38.089844 75.394531 38.023438 C 75.390625 37.96875 75.378906 37.914062 75.371094 37.859375 C 75.324219 37.441406 75.269531 37.023438 75.207031 36.609375 C 75.1875 36.472656 75.164062 36.332031 75.140625 36.191406 C 75.078125 35.796875 75.003906 35.398438 74.925781 35.003906 C 74.910156 34.917969 74.890625 34.828125 74.875 34.742188 C 74.777344 34.269531 74.664062 33.800781 74.546875 33.335938 C 74.515625 33.214844 74.480469 33.097656 74.449219 32.980469 C 74.351562 32.613281 74.246094 32.25 74.136719 31.890625 C 74.113281 31.8125 74.09375 31.734375 74.070312 31.65625 L 104.367188 50.179688 C 105.199219 50.6875 105.902344 51.160156 106.507812 51.621094 C 111.082031 55.09375 114.519531 59.699219 116.445312 64.933594 C 121.144531 77.699219 116.007812 92.242188 104.230469 99.519531 Z M 104.230469 99.519531 " fill-opacity="1" fill-rule="nonzero"/><g fill="#b5e1f9" fill-opacity="1"><g transform="translate(142.892074, 88.1263)"><g><path d="M 3.808594 0 L 10.355469 0 L 10.355469 -28.8125 L 10.839844 -28.8125 L 22.75 0 L 28.277344 0 L 40.242188 -28.867188 L 40.671875 -28.867188 L 40.671875 0 L 47.214844 0 L 47.214844 -37.988281 L 37.933594 -37.988281 L 25.753906 -8.101562 L 25.324219 -8.101562 L 12.984375 -37.988281 L 3.808594 -37.988281 Z M 3.808594 0 "/></g></g></g><g fill="#b5e1f9" fill-opacity="1"><g transform="translate(192.892184, 88.1263)"><g><path d="M 8.316406 12.234375 C 13.574219 12.234375 16.578125 8.210938 19.476562 0.699219 L 30.367188 -27.257812 L 24.089844 -27.257812 L 16.792969 -7.78125 L 16.3125 -7.78125 L 7.511719 -27.257812 L 0.914062 -27.257812 L 14.164062 0.105469 C 12.449219 4.238281 10.625 7.242188 7.242188 7.242188 C 6.0625 7.242188 4.507812 6.976562 3.378906 6.597656 L 3.378906 11.480469 C 4.613281 11.910156 6.707031 12.234375 8.316406 12.234375 Z M 8.316406 12.234375 "/></g></g></g><g fill="#b5e1f9" fill-opacity="1"><g transform="translate(223.149657, 88.1263)"><g/></g></g><g fill="#b5e1f9" fill-opacity="1"><g transform="translate(235.273945, 88.1263)"><g><path d="M 13.519531 0 L 20.28125 0 L 20.28125 -32.355469 L 32.996094 -32.355469 L 32.996094 -37.988281 L 0.859375 -37.988281 L 0.859375 -32.355469 L 13.519531 -32.355469 Z M 13.519531 0 "/></g></g></g><g fill="#b5e1f9" fill-opacity="1"><g transform="translate(267.999245, 88.1263)"><g><path d="M 13.414062 0.859375 C 17.332031 0.859375 20.390625 -1.125 22.320312 -4.667969 L 22.75 -4.667969 L 22.75 0 L 28.867188 0 L 28.867188 -27.257812 L 22.75 -27.257812 L 22.75 -11.644531 C 22.75 -7.40625 19.636719 -4.347656 15.722656 -4.347656 C 11.695312 -4.347656 9.175781 -7.457031 9.175781 -11.859375 L 9.175781 -27.257812 L 3.058594 -27.257812 L 3.058594 -10.839844 C 3.058594 -4.078125 7.191406 0.859375 13.414062 0.859375 Z M 13.414062 0.859375 "/></g></g></g><g fill="#b5e1f9" fill-opacity="1"><g transform="translate(299.329688, 88.1263)"><g><path d="M 19.960938 0.859375 C 27.632812 0.859375 32.996094 -4.9375 32.996094 -13.628906 C 32.996094 -22.265625 27.632812 -28.113281 19.960938 -28.113281 C 15.398438 -28.113281 11.910156 -25.914062 10.035156 -22.265625 L 9.605469 -22.265625 L 9.605469 -39.597656 L 3.542969 -39.597656 L 3.542969 0 L 9.605469 0 L 9.605469 -4.988281 L 10.035156 -4.988281 C 11.910156 -1.394531 15.34375 0.859375 19.960938 0.859375 Z M 18.136719 -4.347656 C 13.039062 -4.347656 9.390625 -8.261719 9.390625 -13.628906 C 9.390625 -18.992188 13.039062 -22.910156 18.136719 -22.910156 C 23.179688 -22.910156 26.882812 -18.992188 26.882812 -13.628906 C 26.882812 -8.261719 23.179688 -4.347656 18.136719 -4.347656 Z M 18.136719 -4.347656 "/></g></g></g><g fill="#b5e1f9" fill-opacity="1"><g transform="translate(333.127957, 88.1263)"><g><path d="M 16.953125 0.859375 C 23.5 0.859375 29.1875 -2.683594 30.691406 -7.941406 L 25.324219 -8.800781 C 24.199219 -5.742188 20.925781 -3.542969 17.222656 -3.542969 C 12.179688 -3.542969 8.585938 -6.921875 8.15625 -11.964844 L 31.550781 -11.964844 L 31.601562 -13.628906 C 31.601562 -22.265625 25.699219 -28.113281 17.007812 -28.113281 C 8.15625 -28.113281 1.929688 -22.320312 1.929688 -13.683594 C 1.929688 -4.988281 8.101562 0.859375 16.953125 0.859375 Z M 8.101562 -15.507812 C 8.585938 -20.390625 12.019531 -23.769531 16.902344 -23.769531 C 21.621094 -23.769531 25.109375 -20.226562 25.433594 -15.507812 Z M 8.101562 -15.507812 "/></g></g></g></svg>